<?xml version="1.0" encoding="iso-8859-1"?>
<!-- Generator: Adobe Illustrator 16.0.0, SVG Export Plug-In . SVG Version: 6.00 Build 0)  -->
<!DOCTYPE svg PUBLIC "-//W3C//DTD SVG 1.1//EN" "http://www.w3.org/Graphics/SVG/1.1/DTD/svg11.dtd">
<svg version="1.1" id="Capa_1" xmlns="http://www.w3.org/2000/svg" xmlns:xlink="http://www.w3.org/1999/xlink" x="0px" y="0px"
	 width="113.432px" height="113.432px" viewBox="0 0 113.432 113.432" style="enable-background:new 0 0 113.432 113.432;"
	 xml:space="preserve">
<g>
	<path fill="#78909c" d="M113.432,86.229c-0.264,0.158-0.549,0.3-0.875,0.358c-0.18,0.042-0.349,0.053-0.527,0.053
		c-1.266,0-2.395-0.886-2.647-2.168c-0.264-0.585-2.964-2.699-12.023-4.661c-1.466-0.321-2.384-1.745-2.067-3.206
		c0.312-1.461,1.725-2.389,3.206-2.072c9.376,2.024,13.247,4.35,14.935,6.396V6.247c0-1.089-0.654-2.078-1.666-2.5
		c-1.019-0.408-2.162-0.176-2.943,0.578L89.195,23.853c-1.023,1.015-1.065,2.674-0.09,3.736c0.907,0.994,1.978,2.597,1.978,4.672
		c0,4.696-5.553,8.662-12.15,8.662c-6.691,0-12.149-3.89-12.149-8.662c0-3.388,2.826-6.486,7.219-7.907
		c0.896-0.29,1.582-1.016,1.804-1.933c0.222-0.907-0.058-1.88-0.723-2.545L58.622,3.423c-1.047-1.052-2.766-1.052-3.817,0
		L38.346,19.876c-0.664,0.665-0.941,1.638-0.72,2.545c0.222,0.917,0.902,1.653,1.798,1.933c4.385,1.421,7.219,4.52,7.219,7.907
		c0,4.696-5.561,8.662-12.15,8.662c-6.695,0-12.15-3.89-12.15-8.662c0-2.069,1.07-3.678,1.967-4.662
		c0.979-1.062,0.934-2.71-0.087-3.726L4.611,4.325C3.839,3.561,2.679,3.333,1.669,3.747C0.659,4.169,0,5.158,0,6.247v89.358
		c0,0.211,0.074,0.396,0.113,0.596C0.087,96.401,0,96.586,0,96.787c0,11.063,35.646,14.011,56.705,14.011
		c21.057,0,56.695-2.947,56.695-14.011c0-0.201-0.096-0.386-0.116-0.586c0.053-0.2,0.116-0.385,0.116-0.596v-9.376H113.432
		L113.432,86.229z M65.812,71.095c5.664,0.158,11.158,0.495,16.348,1.007c1.487,0.143,2.584,1.461,2.437,2.942
		c-0.138,1.403-1.318,2.442-2.689,2.442c-0.085,0-0.18-0.011-0.264-0.011c-5.073-0.496-10.468-0.817-15.989-0.981
		c-1.487-0.053-2.668-1.286-2.626-2.784C63.07,72.223,64.314,71.168,65.812,71.095z M49.452,71.105
		c1.524,0.062,2.74,1.128,2.782,2.615s-1.128,2.731-2.618,2.784c-5.535,0.158-10.914,0.496-15.979,1.007
		c-0.092,0.011-0.18,0.021-0.277,0.021c-1.366,0-2.542-1.039-2.676-2.437c-0.147-1.471,0.934-2.811,2.413-2.953
		C38.274,71.622,43.783,71.264,49.452,71.105z M11.367,45.17c0-0.907,0.572-1.722,1.442-2.035c0.862-0.309,1.825-0.032,2.392,0.675
		c4.39,5.379,11.433,8.451,19.311,8.451c1.197,0,2.16,0.978,2.16,2.162c0,1.181-0.973,2.154-2.16,2.154
		c-7.177,0-13.787-2.236-18.815-6.265v11.417c0,1.197-0.976,2.162-2.159,2.162c-1.182,0-2.16-0.98-2.16-2.162L11.367,45.17
		L11.367,45.17z M0.928,84.373c0-4.261,5.034-7.352,15.833-9.756c1.463-0.316,2.9,0.591,3.23,2.046
		c0.322,1.466-0.596,2.9-2.054,3.228c-8.741,1.94-11.361,3.997-11.62,4.619c0,1.487-1.199,2.627-2.689,2.627
		C2.139,87.137,0.928,85.86,0.928,84.373z M56.731,105.408c-31.967,0-50.398-5.643-51.311-8.553
		c0.892-3.032,19.301-8.664,51.311-8.664s50.409,5.643,51.3,8.553C107.125,99.766,88.699,105.408,56.731,105.408z"/>
</g>
<g>
</g>
<g>
</g>
<g>
</g>
<g>
</g>
<g>
</g>
<g>
</g>
<g>
</g>
<g>
</g>
<g>
</g>
<g>
</g>
<g>
</g>
<g>
</g>
<g>
</g>
<g>
</g>
<g>
</g>
</svg>
